<svg width="48" height="44" viewBox="0 0 48 44" fill="none" xmlns="http://www.w3.org/2000/svg">
<rect width="48" height="44" rx="6" fill="url(#paint0_linear_369_3)"/>
<g clip-path="url(#clip0_369_3)">
<path d="M13.9811 9.17383H16.7736V11.9563H13.9811V18.9126C13.9811 19.6506 13.6869 20.3584 13.1632 20.8802C12.6396 21.402 11.9293 21.6952 11.1887 21.6952C11.9293 21.6952 12.6396 21.9883 13.1632 22.5102C13.6869 23.032 13.9811 23.7397 13.9811 24.4777V31.434H16.7736V34.2165H13.9811C12.4872 33.8409 11.1887 32.9644 11.1887 31.434V25.8689C11.1887 25.131 10.8945 24.4232 10.3708 23.9014C9.8471 23.3796 9.13683 23.0864 8.39623 23.0864H7V20.3039H8.39623C9.13683 20.3039 9.8471 20.0108 10.3708 19.4889C10.8945 18.9671 11.1887 18.2594 11.1887 17.5214V11.9563C11.1887 11.2184 11.4829 10.5106 12.0066 9.98881C12.5303 9.46699 13.2405 9.17383 13.9811 9.17383ZM33.5283 9.17383C34.2689 9.17383 34.9792 9.46699 35.5029 9.98881C36.0266 10.5106 36.3208 11.2184 36.3208 11.9563V17.5214C36.3208 18.2594 36.615 18.9671 37.1386 19.4889C37.6623 20.0108 38.3726 20.3039 39.1132 20.3039H40.5094V23.0864H39.1132C38.3726 23.0864 37.6623 23.3796 37.1386 23.9014C36.615 24.4232 36.3208 25.131 36.3208 25.8689V31.434C36.3208 32.172 36.0266 32.8797 35.5029 33.4015C34.9792 33.9234 34.2689 34.2165 33.5283 34.2165H30.7358V31.434H33.5283V24.4777C33.5283 23.7397 33.8225 23.032 34.3462 22.5102C34.8699 21.9883 35.5802 21.6952 36.3208 21.6952C35.5802 21.6952 34.8699 21.402 34.3462 20.8802C33.8225 20.3584 33.5283 19.6506 33.5283 18.9126V11.9563H30.7358V9.17383H33.5283Z" fill="black"/>
<path d="M24.7944 14.7866V25.8399H22.0212V24.4583H19.248V25.8399C19.248 26.5728 19.5402 27.2757 20.0603 27.7939C20.5804 28.3121 21.2857 28.6033 22.0212 28.6033H24.7944C25.5299 28.6033 26.2353 28.3121 26.7554 27.7939C27.2755 27.2757 27.5676 26.5728 27.5676 25.8399V14.7866H24.7944Z" fill="black"/>
</g>
<defs>
<linearGradient id="paint0_linear_369_3" x1="1.57453e-07" y1="21.4634" x2="48" y2="21.4634" gradientUnits="userSpaceOnUse">
<stop stop-color="#38BDF8"/>
<stop offset="1" stop-color="#45D9BF"/>
</linearGradient>
<clipPath id="clip0_369_3">
<rect width="33.5094" height="33.3902" fill="white" transform="translate(7 5)"/>
</clipPath>
</defs>
</svg>
