<svg width="48" height="37" viewBox="0 0 48 37" fill="none" xmlns="http://www.w3.org/2000/svg">
<rect width="48" height="37" rx="6" fill="url(#paint0_linear_369_3)"/>
<g clip-path="url(#clip0_369_3)">
<path d="M14.2262 5.979H17.0187V8.76152H14.2262V15.7178C14.2262 16.4558 13.932 17.1635 13.4084 17.6854C12.8847 18.2072 12.1744 18.5003 11.4338 18.5003C12.1744 18.5003 12.8847 18.7935 13.4084 19.3153C13.932 19.8372 14.2262 20.5449 14.2262 21.2829V28.2392H17.0187V31.0217H14.2262C12.7323 30.646 11.4338 29.7696 11.4338 28.2392V22.6741C11.4338 21.9362 11.1396 21.2284 10.6159 20.7066C10.0922 20.1848 9.38195 19.8916 8.64134 19.8916H7.24512V17.1091H8.64134C9.38195 17.1091 10.0922 16.8159 10.6159 16.2941C11.1396 15.7723 11.4338 15.0645 11.4338 14.3266V8.76152C11.4338 8.02355 11.728 7.31581 12.2517 6.79399C12.7754 6.27216 13.4856 5.979 14.2262 5.979ZM33.7734 5.979C34.514 5.979 35.2243 6.27216 35.748 6.79399C36.2717 7.31581 36.5659 8.02355 36.5659 8.76152V14.3266C36.5659 15.0645 36.8601 15.7723 37.3838 16.2941C37.9074 16.8159 38.6177 17.1091 39.3583 17.1091H40.7546V19.8916H39.3583C38.6177 19.8916 37.9074 20.1848 37.3838 20.7066C36.8601 21.2284 36.5659 21.9362 36.5659 22.6741V28.2392C36.5659 28.9771 36.2717 29.6849 35.748 30.2067C35.2243 30.7285 34.514 31.0217 33.7734 31.0217H30.981V28.2392H33.7734V21.2829C33.7734 20.5449 34.0676 19.8372 34.5913 19.3153C35.115 18.7935 35.8253 18.5003 36.5659 18.5003C35.8253 18.5003 35.115 18.2072 34.5913 17.6854C34.0676 17.1635 33.7734 16.4558 33.7734 15.7178V8.76152H30.981V5.979H33.7734Z" fill="black"/>
<path d="M25.0396 11.5918V22.6451H22.2664V21.2635H19.4932V22.6451C19.4932 23.378 19.7853 24.0809 20.3054 24.5991C20.8255 25.1173 21.5309 25.4084 22.2664 25.4084H25.0396C25.7751 25.4084 26.4804 25.1173 27.0005 24.5991C27.5206 24.0809 27.8127 23.378 27.8127 22.6451V11.5918H25.0396Z" fill="black"/>
</g>
<defs>
<linearGradient id="paint0_linear_369_3" x1="1.57453e-07" y1="18.0488" x2="48" y2="18.0488" gradientUnits="userSpaceOnUse">
<stop stop-color="#38BDF8"/>
<stop offset="1" stop-color="#45D9BF"/>
</linearGradient>
<clipPath id="clip0_369_3">
<rect width="33.5094" height="33.3902" fill="white" transform="translate(7.24512 1.80518)"/>
</clipPath>
</defs>
</svg>
